# xmcd CD Database Entry
#
# Track frame offsets:
# 150
# 11835
# 24560
# 35103
# 50041
# 65870
# 77291
# 86354
# 95993
# 124959
#
# Disc length: 3513 seconds
#
# Revision: 1
# Processed by: cddbd v1.4PL0 Copyright (c) Steve Scherf et al.
# Submitted via: tcd 2.0b
#
DISCID=890db70a
DTITLE=Velhas Virgens - Reveillon 2001
DYEAR=2000
DGENRE=Blues
TTITLE0=Samba Da Natasja Kinski
TTITLE1=O Que É Bom Tá Guardado
TTITLE2=Marcha Do Tira A Roupa
TTITLE3=Aposentadoria De Malandro
TTITLE4=O Que É Que Você Tem Na Boca , Maria?
TTITLE5=Essa Tal De T.P.M.
TTITLE6=Hino Dos Solteiros
TTITLE7=Só Pra Sacanear
TTITLE8=Homem Do Bigode Cheiroso
TTITLE9=DATA
EXTD=
EXTT0=
EXTT1=
EXTT2=
EXTT3=
EXTT4=
EXTT5=
EXTT6=
EXTT7=
EXTT8=
EXTT9=
PLAYORDER=
